<svg xmlns="http://www.w3.org/2000/svg" viewBox="0 0 4680 3120"><defs><clipPath id="a"><path fill="none" d="M3027,1456.38l-82.43,539.77,39.88,619.54h140.93V2012.1l58.5-372.26,26.59-2.65,47.86,436.07,61.15,550.4,127.63-2.66-34.56-558.38s31.9-600.93-13.3-646.13S3027,1456.38,3027,1456.38Z"/></clipPath><clipPath id="b"><path fill="none" d="M3257.89,803.39s-44.81,240.85-28.85,365.82,55.84,460,55.84,460l218-53.18-90.4-273.87,21.27-457.35S3324.37,792.76,3257.89,803.39Z"/></clipPath><clipPath id="c"><path fill="none" d="M3044.92,822.87s8.63,189.46,11.28,298.48,55.2,504.53,55.2,504.53l-135.61,10.63-25.94-419.44s-19.26,188.11-45.85,214.7-282.32,22-282.32,22L2605,1363.35l209.29-66.51s65.78-391.4,109-430.76C2967.81,825.53,3044.92,822.87,3044.92,822.87Z"/></clipPath><clipPath id="d"><path fill="none" d="M3105.5,1290.52l-35.09-48.91-47.17-19.09-.32,1.92a15.27,15.27,0,0,0,6.7,15.3l7.34,4.82,1.16,13.08-41.2,3.68a13.67,13.67,0,0,0-12.44,14.3l.89,18.06,10.78,11.57-2.85,1.31a9.77,9.77,0,0,0-5.53,10.69l3,16.08,20.71,15.33-4.18,1.91a7.83,7.83,0,0,0-3.85,10.39h0a10.19,10.19,0,0,0,11.87,5.6l59.5-15.77Z"/></clipPath><clipPath id="e"><path fill="none" d="M3376,823.22s35.27,1.47,76.39,32.23c67.33,50.37,85.09,98.38,71.79,218s-31.9,348.33-103.7,372.26-348.32-82.43-348.32-82.43l23.93-98.38,215.38,8,55.83-242S3346.75,879.05,3376,823.22Z"/></clipPath><clipPath id="f"><path fill="none" d="M3167.33,548.06c.61-13.19-9.27-25.23-21.38-30.5s-25.93-4.92-39-2.82-25.81,5.85-39,7.08a103.48,103.48,0,0,1-51.27-8.37,73.08,73.08,0,0,0,22.34,22.39,31.62,31.62,0,0,1-29.14,3.65c-6.09-2.35-12.48-6.7-18.55-4.31a14.83,14.83,0,0,0-6.09,5.14c-10.85,14.29-9.62,34.59-3.56,51.48,6.83,19.05,19.29,36.19,35.82,47.86s37.15,17.69,57.31,15.89a90.14,90.14,0,0,1,11.48-.8c7.89.31,15.32,3.85,21.9,8.22,6.08,4,11.74,9,15.46,15.24,3.25,5.5,5,12,9.55,16.5,3.83,3.78,9.12,5.59,14.22,7.29l23.65,7.88c1.47.49,3.11,1,4.53.35,1.18-.52,11.92,7.22,12.48,6,18.17-37.94,27.18-87.4,34.32-130,.86-5.09,1.57-10.47-.29-15.28-1.77-4.57-5.62-8-9.44-11.05a216.35,216.35,0,0,0-43.24-27.16Z"/></clipPath><clipPath id="g"><path fill="none" d="M2360.6,1459.83s-87,35.73-239.93,9.44c0,0-137.85,125.93-158.72,286-14.66,112.36-79.92,817-79.92,817l207.23,15.71,127.85-815.26h0L2212.5,2580l216.93,17S2504.8,1877.07,2360.6,1459.83Z"/></clipPath><clipPath id="h"><path fill="none" d="M2265.52,1134s40.9,8.34,69.6,19,73.08,104.36,83.52,144.49,13.05,101.69,13.05,101.69-232.28,77.6-321,32.11l-34.93-83.82h0l-76.53,5.07s-55.64-181.19,61.88-180.81l60.89-17.56S2255.08,1211.57,2265.52,1134Z"/></clipPath><clipPath id="i"><circle cx="2068.02" cy="914.39" r="56.08" fill="none" transform="rotate(-8.57 2068.732 914.646)"/></clipPath><clipPath id="j"><path fill="none" d="M2104.89,1041.55c4.68-21,20.87-17.77,29-16.81a3.45,3.45,0,0,0,3.82-3.13c.09-1.12.21-2.15.3-3.21,6.67.45,15.53-2.79,28-12,13.23-9.7,20.21-50.21,35.52-44.67,28.44,10.3,41.15-7.31,42.88-24.33a72.48,72.48,0,0,1,6,4.14,133.79,133.79,0,0,0,16.88,18.28c7.33,11.07,13.33,25.76,16.74,45.2.38,2.24.72,4.39,1,6.51,2.5,17.23,2.45,31,.7,42-5.54,35.32-28,43.35-38.71,46.44l-.21,15a18.69,18.69,0,0,0,18.66,19h2.66s44,83.84-25.86,100.13-99.27-45-119-71.84l20.32-13.43a15.62,15.62,0,0,0,6.86-10.78l7.15-48.7s-14.72-17.89-17.53-21.75c-4.66,2.06-15,.66-21.93-1.62C2109.34,1063.05,2102.54,1052.15,2104.89,1041.55Z"/></clipPath><clipPath id="k"><path fill="none" d="M2137.59,1338.28c-4.27-.26-128.4,14.27-128.4,14.27s44.16,86.49,124.12,151.23c67.36,54.53,245.48-9.71,318.28-29.46a28,28,0,0,1,26.17,5.9c3,2.73,7.91,5.73,15.83,8.61,23.76,8.62,22.07-10.07,51.07-16.84s34.71-6.42,39.6-16.12-8.64-22-17.45-18.24-48-55.87-36.07-63.71,28.31-20.88,12.47-19-28.23-3.42-46.38,12.61-37.72,32-62.1,33.31-210.11,25.9-210.11,25.9Z"/></clipPath></defs><g data-name="7"><rect width="4680" height="3120" fill="#fff" data-name="7" opacity="0"/><ellipse cx="3405.87" cy="2756.89" fill="#d3e5f4" rx="433.27" ry="42.19"/><ellipse cx="1960.96" cy="2776.68" fill="#d3e5f4" rx="421.94" ry="22.4"/><polygon fill="#d3e5f4" points="3572.23 549.48 2340.79 495.87 1125.19 323.01 851.99 1756.04 840.86 1814.37 2437.36 1907.13 3738.24 1907.13 3589.29 550.22 3572.23 549.48"/><polygon fill="#98cfe4" points="1125.19 323.01 851.99 1756.04 1178.94 398.28 2401.77 558.92 3572.23 549.48 2340.79 495.87 1125.19 323.01"/><g opacity=".5"><path fill="#98cfe4" d="M3303.33,690.64A83.31,83.31,0,1,0,3386.65,774,83.4,83.4,0,0,0,3303.33,690.64Zm0,160.62A77.31,77.31,0,1,1,3380.65,774,77.4,77.4,0,0,1,3303.33,851.26Z"/><circle cx="3303.33" cy="773.95" r="43.58" fill="#98cfe4"/></g><g opacity=".5"><path fill="#98cfe4" d="M2676.38,1154.38c-90.23,0-163.63,73.4-163.63,163.62s73.4,163.63,163.63,163.63S2840,1408.22,2840,1318,2766.6,1154.38,2676.38,1154.38Zm0,321.25c-86.92,0-157.63-70.71-157.63-157.63s70.71-157.62,157.63-157.62S2834,1231.09,2834,1318,2763.29,1475.63,2676.38,1475.63Z"/><circle cx="2676.38" cy="1318" r="87.16" fill="#98cfe4"/></g><path fill="#319cbc" d="M2586.42,517a62.46,62.46,0,0,0-64.1-60.78L1051,495.44a62.46,62.46,0,0,0-60.78,64.1l55.06,2064.65a62.46,62.46,0,0,0,64.11,60.78l1471.27-39.24a62.46,62.46,0,0,0,60.78-64.1Z"/><path fill="#98cfe4" d="M2622.06,516a62.46,62.46,0,0,0-64.1-60.78L1086.68,494.49a62.46,62.46,0,0,0-60.77,64.1l55,2064.65a62.46,62.46,0,0,0,64.11,60.78l1471.28-39.24a62.46,62.46,0,0,0,60.77-64.1Z"/><rect width="1314.23" height="1909.07" x="1189.95" y="562.85" fill="#fff" transform="rotate(-1.53 1844.167 1514.866)"/><path fill="#c7dce2" d="M1164.74,580.72C1184.17,1324.9,1184.08,2223,1273,2419.53c369.15,26,800.57,26.07,1255.94,16.07L2305.59,556.05Z"/><path fill="#fff" d="M1787,565.75l-624.76,58c10.58,739,27.78,1421.35,168,1734.08,576.32,76.54,960,71.15,1270.47,39.76-51.76-428.05-86.93-1140.51-122.17-1851.82Z"/><rect width="1027.8" height="48.22" x="1365" y="999.76" fill="#d3e5f4" transform="rotate(-2.88 1876.007 1022.394)"/><rect width="698.62" height="48.22" x="1699.25" y="1096.49" fill="#d3e5f4" transform="rotate(-2.88 2045.538 1119.004)"/><rect width="846.38" height="48.22" x="1559.78" y="1263.34" fill="#d3e5f4" transform="rotate(-2.88 1980.245 1285.74)"/><rect width="1027.8" height="48.22" x="1383.74" y="1372.88" fill="#d3e5f4" transform="rotate(-2.88 1894.702 1395.045)"/><rect width="1027.8" height="48.22" x="1391.94" y="1536.02" fill="#d3e5f4" transform="rotate(-2.88 1902.949 1557.858)"/><rect width="459.65" height="48.22" x="1965" y="1626.77" fill="#d3e5f4" transform="translate(-80.07 112.2)"/><rect width="1027.8" height="48.21" x="1405.41" y="1804.16" fill="#d3e5f4" transform="translate(-89.32 98.6)"/><rect width="811.93" height="48.22" x="1626.42" y="1903.74" fill="#d3e5f4" transform="rotate(-2.88 2029.256 1925.054)"/><polygon fill="#cc2e45" points="1281.21 904.53 1277.88 828.58 1256.68 829.52 1260.8 923.22 1319.28 920.65 1318.49 902.9 1281.21 904.53"/><path fill="#cc2e45" d="M1363.64,823.28c-27.6,1.22-44.68,23-43.45,51,1.17,26.72,18.44,47,46.22,45.8,27.41-1.2,45.15-20.6,43.8-51.34C1409.07,842.84,1392.4,822,1363.64,823.28Zm3.09,79.94c-14.14.62-23.36-11.94-24.17-30.3s7-32.14,21.35-32.77c14.57-.64,23.18,13.43,23.93,30.33C1388.64,888.7,1381.05,902.59,1366.73,903.22Z"/><path fill="#cc2e45" d="M1441.8,821.38l-24.49,95,21.92-1,5.55-24.35,27-1.19,8.27,23.75,22.82-1-33.29-92.42Zm5.36,53.73,4.73-20.14c1.26-5.51,2.37-12.68,3.49-18.26h.3c1.68,5.42,3.65,12.37,5.5,17.84l6.72,19.66Z"/><path fill="#cc2e45" d="M1569.36,815.77l1.2,27.32a375.82,375.82,0,0,0,3.43,39.08l-.36.06a265.19,265.19,0,0,0-16.73-31.48l-21-33.51-24.69,1.09,4.12,93.7,19.46-.85L1533.59,883c-.67-15.3-1.52-28.55-2.72-40.94l.46-.06a340.13,340.13,0,0,0,17.73,32.38l21.67,35.21,22.2-1-4.12-93.7Z"/><path fill="#cc2e45" d="M1657.14,811.91l-24.48,95,21.91-1,5.56-24.35,26.94-1.18,8.27,23.74,22.82-1-33.29-92.43Zm5.36,53.73,4.73-20.13c1.27-5.51,2.37-12.69,3.5-18.26l.29,0c1.68,5.42,3.65,12.38,5.5,17.84l6.72,19.66Z"/><path fill="#cc2e45" d="M1768.16,847.12l.73,16.54,14.47-.64.87,19.69c-1.65.84-5.51,1.57-10.3,1.78-17.35.76-30.07-10-30.92-29.39-.89-20.38,12.11-30.9,29.77-31.68,10.3-.45,16.68,1,22,3l3.68-17.17c-4.73-2-14.15-3.89-26.25-3.36-30.68,1.35-52.62,20.08-51.35,51.26.55,13.77,5.78,25.76,14.74,33.53s21.53,11.65,38.65,10.89a103.89,103.89,0,0,0,31.06-6.64l-2.17-49.36Z"/><path fill="#cc2e45" d="M1870.79,852.43l0-.44c7.94-3.25,16.06-11.89,15.54-23.76-.38-8.62-3.75-15.07-9.53-19.26-6.93-5-16.76-6.71-30.66-6.1a179.66,179.66,0,0,0-28.07,3.26l4.06,92.42,21-.92-1.62-36.8,6.31-.27c8.72-.28,12.78,2.68,15.91,14.27s5.85,18.92,7.41,21.56l21.69-.95c-2-3.55-5.36-15.64-8.73-26.11C1881.35,860.82,1877.42,854.77,1870.79,852.43Zm-21.68-7.3-8.29.37-1.14-25.81a43.43,43.43,0,0,1,9.51-1.13c9.69-.37,15.75,3.76,16.13,12.34C1865.68,839,1859.63,844.67,1849.11,845.13Z"/><polygon fill="#cc2e45" points="1925.02 876.64 1924.04 854.35 1958.52 852.84 1957.77 835.65 1923.29 837.16 1922.43 817.64 1958.97 816.03 1958.21 798.68 1900.47 801.22 1904.59 894.92 1964.33 892.3 1963.57 874.94 1925.02 876.64"/><polygon fill="#cc2e45" points="1999.31 873.37 1998.33 851.09 2032.81 849.57 2032.05 832.38 1997.57 833.9 1996.71 814.37 2033.26 812.77 2032.49 795.41 1974.76 797.95 1978.88 891.66 2038.62 889.03 2037.85 871.68 1999.31 873.37"/><path fill="#cc2e45" d="M2117.56,791.67,2109,823.29c-2.73,10.57-5.35,23.07-7.44,34l-.46,0c-2.56-10.89-6-22.54-9.41-33.15l-10.52-30.92-28.25,1.24-1.88,94,19.61-.87.18-35.64c.05-11.69-.06-26.18-.16-39h.3c2.86,12.25,6.56,25.43,10.07,36.33l11.69,35.77,16.46-.73,9.87-37c3-11.21,6.4-24.71,8.85-36.83l.39,0c.55,13.74,1.58,27.23,2.51,38.57l3,35.78,20.6-.91-9.15-93.49Z"/><polygon fill="#cc2e45" points="2191.27 864.93 2190.29 842.65 2224.78 841.13 2224.02 823.94 2189.54 825.46 2188.68 805.93 2225.22 804.33 2224.46 786.97 2166.72 789.51 2170.84 883.22 2230.58 880.59 2229.82 863.24 2191.27 864.93"/><path fill="#cc2e45" d="M2299.12,783.69l1.2,27.32a370.42,370.42,0,0,0,3.43,39.08l-.36.06a265.74,265.74,0,0,0-16.73-31.47l-21-33.52L2241,786.25l4.12,93.7,19.46-.85-1.24-28.17c-.67-15.3-1.53-28.55-2.73-40.94l.46-.06a342.44,342.44,0,0,0,17.74,32.38l21.67,35.21,22.2-1-4.12-93.7Z"/><polygon fill="#cc2e45" points="2329.81 782.34 2330.59 800.13 2355.87 799.02 2359.21 874.94 2380.4 874.01 2377.06 798.09 2402.7 796.96 2401.92 779.17 2329.81 782.34"/><path fill="#319cbc" d="M1571.21,2078.13a347.09,347.09,0,0,1-48,66,357.29,357.29,0,0,1-29.56,28.55,349.7,349.7,0,0,1-67.64,45.64q-2.31,1.2-4.63,2.35c-2.88,1.43-.35,5.75,2.52,4.32a349.89,349.89,0,0,0,35.82-20.55,358.87,358.87,0,0,0,90.42-84.86,348.67,348.67,0,0,0,22.81-34.41q1.3-2.25,2.57-4.51C1577.11,2077.84,1572.79,2075.32,1571.21,2078.13Z"/><path fill="#319cbc" d="M1575.85,2134.38a177.12,177.12,0,0,1,23.52-34.94q3.21-6.6,6.07-13.35l4.18,2.43c-1.52,1.48-3,3-4.48,4.52-2,2.08-3.89,4.22-5.77,6.4a282.09,282.09,0,0,1-25.18,42c-1.37,1.88-2.77,3.74-4.18,5.59-1.46,3.53-2.83,7.1-4.06,10.71-.43,1.26-.84,2.52-1.25,3.79,2.73-3.22,5.41-6.48,8-9.82a284.54,284.54,0,0,0,34.19-56.55c1.17-2.57,2.29-5.16,3.38-7.76a2.5,2.5,0,0,0-1.15-2.82,2.57,2.57,0,0,0-3,.39,181.66,181.66,0,0,0-45.84,74.14q5.05-5.89,9.77-12.08C1571.8,2142.75,1573.73,2138.52,1575.85,2134.38Z"/><path fill="#319cbc" d="M1609.62,2088.52l-4.18-2.43q-2.85,6.75-6.07,13.35c1.88-2.18,3.79-4.32,5.77-6.4C1606.61,2091.5,1608.1,2090,1609.62,2088.52Z"/><path fill="#319cbc" d="M1531.27,2188.36c-4,3.44-8,6.87-12.17,10-3.95,2.94-8.52,5.8-13.49,6.5a9.34,9.34,0,0,1-10-5c-1.73-3.57-1.45-8.09-.78-11.92a107,107,0,0,1,4-14.5q2.46-7.53,5.47-14.86a215.06,215.06,0,0,1,53.6-76.49c1.91-1.74,3.84-3.43,5.8-5.1a2.51,2.51,0,0,0,0-3.53,2.54,2.54,0,0,0-3.53,0,218.33,218.33,0,0,0-42.9,49.34,212.06,212.06,0,0,0-26.35,59.7c-2.27,8.68-3.19,21,6.22,25.86,10.41,5.42,21.77-3.34,29.51-9.58a280.49,280.49,0,0,0,30.46-28.53c.93-3.74,2-7.44,3.18-11.11A280.62,280.62,0,0,1,1531.27,2188.36Z"/><path fill="#319cbc" d="M1676.18,2093l-3.93-3c-7.2,10.41-14.41,20.85-21.35,31.46q10.15-11.24,20.16-22.6Z"/><path fill="#319cbc" d="M1736.81,2134.63a422.13,422.13,0,0,1-44.72,29.56q-11.64,6.67-23.68,12.59c-7.93,3.89-16,7.75-24.24,10.89-7.69,2.91-16.72,5.41-24.73,2.51-.27.67-.55,1.33-.8,2-.39-.94-.77-1.89-1.15-2.83a18.32,18.32,0,0,0,2,.82c10.78-27.28,26.32-52.39,42.67-76.64,4.76-7.07,9.61-14.08,14.46-21.1,1.6-2.32-2.06-5.17-3.93-3q-19.94,22.82-40.47,45.08t-41.52,43.78c-3.28,3.37-6.5,6.84-10,10-2.91,2.68-6.24,5.2-10.19,6a10.49,10.49,0,0,1-8.61-1.76c-2.91-2.43-2.89-6.58-2.38-10a131,131,0,0,1,5.18-21c-2.5,2.94-5,5.85-7.64,8.69-.59,2.31-1.12,4.63-1.61,7-.9,4.3-1.86,9-.56,13.31a12.45,12.45,0,0,0,8.42,8.33c8.73,2.74,16.63-2.72,22.57-8.57,7.36-7.24,14.46-14.76,21.61-22.22s14.36-15.1,21.46-22.73q11.07-11.88,22-23.93c6.94-10.61,14.15-21.05,21.35-31.46l3.93,3-5.12,5.83q-10,11.37-20.16,22.6a441.84,441.84,0,0,0-26.76,46q-5.69,11.51-10.33,23.5a2.52,2.52,0,0,0,1.15,2.82c8.18,4,17.33,3.08,25.78.46,8.63-2.68,16.93-6.71,25.07-10.57a421.09,421.09,0,0,0,48-26.77q13.08-8.45,25.5-17.86a2.57,2.57,0,0,0,.9-3.42A2.51,2.51,0,0,0,1736.81,2134.63Z"/><path fill="#319cbc" d="M1566,2157.75c1.23-3.61,2.6-7.18,4.06-10.71q-4.71,6.18-9.77,12.08c-1.18,3.67-2.25,7.37-3.18,11.11,2.61-2.84,5.14-5.75,7.64-8.69C1565.11,2160.27,1565.52,2159,1566,2157.75Z"/><path fill="#319cbc" d="M1618.64,2192.19c.25-.68.53-1.34.8-2a18.32,18.32,0,0,1-2-.82C1617.87,2190.3,1618.25,2191.25,1618.64,2192.19Z"/><path fill="#319cbc" d="M1832.81,2185.47q-36.84,1.41-73.56,5t-73.09,9.44q-36.42,5.81-72.44,13.79t-71.81,18.2q-35.45,10.14-70.24,22.4c-2.86,1-5.71,2-8.56,3-3,1.08-1.71,5.92,1.33,4.82q34.51-12.45,69.74-22.82t71.33-18.68q35.76-8.22,72-14.3t72.73-10q36.68-3.9,73.52-5.59c3-.14,6-.26,9.08-.38C1836,2190.35,1836,2185.35,1832.81,2185.47Z"/><polygon fill="#c7dce2" points="2120.57 555.22 2122.5 627.53 1530.72 643.31 1528.79 571 1480.77 572.28 1483.68 681.77 2171.52 663.43 2168.6 553.94 2120.57 555.22" opacity=".5"/><path fill="#c4c4c4" d="M2118.57,480.23a85.1,85.1,0,0,0-26.51-59.51,66.4,66.4,0,0,0-6.17-5.21,84.35,84.35,0,0,0-54.67-18.07,100.61,100.61,0,0,1-43.77-8.76,106.57,106.57,0,0,1-16.6-9.43,100.1,100.1,0,0,1-37.69-50.51,100.51,100.51,0,0,0-98.07-68.7l-36.94,1a100.28,100.28,0,0,0-54.35,17.72c-1.33.89-2.63,1.81-3.89,2.79a100.57,100.57,0,0,0-36,53.32,100.48,100.48,0,0,1-35,52.44,105,105,0,0,1-16.08,10.29,100.43,100.43,0,0,1-43.26,11.1,84.27,84.27,0,0,0-43.66,13.46,78.19,78.19,0,0,0-10,7.49A84.71,84.71,0,0,0,1526.8,496l3.92,147.29,591.77-15.79-.66-25ZM1820.29,398.7c-29,.78-53.09-20.93-53.82-48.48s22.17-50.52,51.16-51.29,53.08,20.93,53.82,48.49S1849.28,397.93,1820.29,398.7Z"/><path fill="#efefef" d="M2140.38,480.23a85.1,85.1,0,0,0-26.52-59.51,66.28,66.28,0,0,0-6.16-5.21A84.37,84.37,0,0,0,2053,397.44a100.56,100.56,0,0,1-43.77-8.76,105.66,105.66,0,0,1-16.6-9.43,100.11,100.11,0,0,1-37.7-50.51A100.48,100.48,0,0,0,1856.9,260l-37,1a100.34,100.34,0,0,0-54.35,17.72c-1.32.89-2.62,1.81-3.89,2.79a100.5,100.5,0,0,0-36,53.32,100.42,100.42,0,0,1-35,52.44,104,104,0,0,1-16.08,10.29,100.42,100.42,0,0,1-43.25,11.1,84.24,84.24,0,0,0-43.66,13.46,77.49,77.49,0,0,0-10,7.49A84.72,84.72,0,0,0,1548.6,496l3.92,147.29,591.78-15.79-.67-25ZM1842.09,398.7c-29,.78-53.08-20.93-53.82-48.48s22.17-50.52,51.16-51.29,53.09,20.93,53.82,48.49S1871.08,397.93,1842.09,398.7Z"/><path fill="#fff" d="M2529.69,1369.44s-49.77,44.43-35.55,48,46.21-19.55,46.21-19.55,16,17.77,40.88,16l-3.55-49.76Z"/><path d="M2529.85,1370.92l.51-.07.32-.3Z"/><path d="M2564.62,1411.48c-1.75-.65-3.53-1.2-5.21-2a56.68,56.68,0,0,1-9.68-5.42l-2.23-1.64c-.71-.58-1.44-1.15-2.14-1.75a48.68,48.68,0,0,1-3.94-3.75l-.84-.93-1.07.72c-3.9,2.66-8,5.18-12.08,7.55a139.59,139.59,0,0,1-12.59,6.58,63.14,63.14,0,0,1-13.13,4.55,17.76,17.76,0,0,1-6.42.25c-1.14-.16-1.5-.48-1.6-.67a3.28,3.28,0,0,1,.14-2,24.53,24.53,0,0,1,3-5.84c1.27-1.92,2.69-3.8,4.16-5.64,2.95-3.68,6.16-7.19,9.39-10.69s6.58-6.91,10-10.27,6.61-6.5,10-9.65l-.51.07.83-.37-.32.3c3.82-.49,7.65-1,11.46-1.52l12-1.65,11.95-1.73c4-.58,8-1.21,11.94-1.84-4,.25-8,.51-12.06.82l-12,.93-12,1q-6,.51-12,1.08l-.45,0-.38.33q-10.93,9.5-21,19.85-5.07,5.19-9.71,10.83c-1.54,1.89-3,3.83-4.42,5.9a27.3,27.3,0,0,0-3.56,6.89,9.59,9.59,0,0,0-.39,2.26,5.57,5.57,0,0,0,.56,2.74,4.82,4.82,0,0,0,2.17,2.06,6.41,6.41,0,0,0,1.21.45c.38.09.7.14,1,.21a21.42,21.42,0,0,0,7.86-.32,60.54,60.54,0,0,0,13.94-5,158.92,158.92,0,0,0,23.81-14.44c-.31-.3-.62-.6-.92-.91l1.91.2-1,.71a44.07,44.07,0,0,0,3.48,3c.76.6,1.55,1.15,2.33,1.72l2.41,1.59a53.21,53.21,0,0,0,10.33,5.07c1.78.71,3.65,1.17,5.48,1.71a49.34,49.34,0,0,0,5.64,1,48.43,48.43,0,0,0,11.35.06,53.58,53.58,0,0,1-11.19-1A55.05,55.05,0,0,1,2564.62,1411.48Z"/><path d="M2539.29,1398.84c.3.31.61.61.92.91l1-.71Z"/><path fill="#f4abba" d="M2526.23,1373c-29.78,13.37-58.15,73.55-58.15,73.55l45.38,30.75,139-34.77-21.27-72.21S2556,1359.62,2526.23,1373Z"/><polygon fill="#f7bac3" points="3013.13 2562.45 3014.11 2625.03 3015.31 2701.62 3087.5 2705.79 3090.17 2630.66 3092.57 2562.98 3096.22 2460.62 3011.52 2460.62 3013.13 2562.45"/><polygon fill="#ef8998" points="3014.11 2625.03 3090.17 2630.66 3092.57 2562.98 3013.13 2562.45 3014.11 2625.03"/><path fill="#7c3425" d="M3024.35,2644.05c-24-15.1-36.34-9-38,10.62s-2.24,31.32-2.24,31.32l53.68,5S3048.39,2659.15,3024.35,2644.05Z"/><path fill="#7c3425" d="M3090.38,2625.7l-1,32.56s-5.32,13-22.42,8-39.6-5.42-67.94,4.89c0,0-55.6,38.75-99.2,37.95,0,0-74.94,1.34-70.35,67.57l303.37-.33s18.37-55-16.47-98.68C3116.36,2677.64,3134.73,2620,3090.38,2625.7Z"/><rect width="303.57" height="34.13" x="2829.26" y="2776.32" fill="#db8a7d"/><path fill="#fff" d="M3013.1,2688.91c-10.32-7.58-21.52-10.6-32.4-8.73a2,2,0,1,0,.68,3.94c23.69-4.06,40.67,19,40.84,19.2a2,2,0,0,0,1.62.83,2,2,0,0,0,1.17-.38,2,2,0,0,0,.45-2.79A60.61,60.61,0,0,0,3013.1,2688.91Z"/><path fill="#fff" d="M2991.69,2700.93c-10.31-7.58-21.51-10.6-32.39-8.73a2,2,0,0,0,.68,3.94c23.69-4.06,40.67,19,40.84,19.2a2,2,0,1,0,3.24-2.34A60.51,60.51,0,0,0,2991.69,2700.93Z"/><path fill="#fff" d="M2966.92,2708.25c-10.32-7.58-21.53-10.6-32.4-8.73a2,2,0,1,0,.68,3.94c23.69-4.05,40.67,19,40.84,19.2a2,2,0,0,0,1.62.83,2,2,0,0,0,1.17-.38,2,2,0,0,0,.46-2.79A61.44,61.44,0,0,0,2966.92,2708.25Z"/><path fill="#fff" d="M3130.08,2704.26a121.26,121.26,0,0,0-37.28,11.93c-25,12.87-39.1,32.93-40.93,58a2,2,0,0,0,1.85,2.14h.15a2,2,0,0,0,2-1.86c1.74-23.9,14.75-42.3,38.67-54.67a119.2,119.2,0,0,1,36-11.56,2,2,0,0,0-.47-4Z"/><path fill="#fff" d="M2904.59,2708.2a2,2,0,0,0-2,2,2,2,0,0,0,2,2,40,40,0,0,1,26.47,11.7c10.73,10.74,16,27.69,15.53,50.39a2,2,0,0,0,2,2h0a2,2,0,0,0,2-2c.45-23.82-5.17-41.75-16.71-53.29A43.61,43.61,0,0,0,2904.59,2708.2Z"/><polygon fill="#f7bac3" points="3417.41 2569.66 3412.41 2462.72 3328.01 2469.67 3338.68 2578.6 3344.47 2637.69 3351.53 2709.58 3423.83 2707.82 3420.53 2637.24 3417.41 2569.66"/><polygon fill="#ef8998" points="3338.68 2578.6 3345.13 2631.09 3420.53 2637.24 3417.41 2569.66 3338.68 2578.6"/><path fill="#7c3425" d="M3355.82,2651.44c-25.19-13.08-37-5.94-37,13.7s.33,31.39.33,31.39l53.91.63S3381,2664.52,3355.82,2651.44Z"/><path fill="#7c3425" d="M3420.13,2627.75l1.65,32.53s-4.23,13.44-21.69,9.79-39.9-2.16-67.31,10.43c0,0-52.24,43.18-95.75,45.94,0,0-74.59,7.47-64.59,73.11l302.32-25.16s13.81-56.29-24.49-97C3450.27,2677.39,3463.86,2618.44,3420.13,2627.75Z"/><rect width="303.57" height="34.13" x="3173.1" y="2786.75" fill="#db8a7d" transform="rotate(-4.69 3328.015 2806.268)"/><path fill="#fff" d="M3348.28,2697.07c-10.91-6.7-22.32-8.8-33-6.05a2,2,0,1,0,1,3.88c23.28-6,42.09,15.57,42.27,15.79a2,2,0,0,0,3-2.6A60.67,60.67,0,0,0,3348.28,2697.07Z"/><path fill="#fff" d="M3327.93,2710.8c-10.9-6.71-22.31-8.8-33-6.05a2,2,0,0,0,1,3.88c23.29-6,42.09,15.57,42.28,15.79a2,2,0,0,0,3-2.6A60.88,60.88,0,0,0,3327.93,2710.8Z"/><path fill="#fff" d="M3303.84,2720.13c-10.91-6.71-22.32-8.8-33-6.05a2,2,0,1,0,1,3.87c23.28-6,42.08,15.58,42.27,15.79a2,2,0,0,0,1.52.7,2,2,0,0,0,1.3-.48,2,2,0,0,0,.22-2.82A61.09,61.09,0,0,0,3303.84,2720.13Z"/><path fill="#fff" d="M3466.13,2702.8a121,121,0,0,0-36.18,14.94c-23.82,14.87-36.28,36-36,61.14a2,2,0,0,0,2,2h0a2,2,0,0,0,2-2c-.22-24,11.24-43.36,34.07-57.65a119.56,119.56,0,0,1,35-14.48,2,2,0,0,0-.79-3.92Z"/><path fill="#fff" d="M3272,2735.6a43.44,43.44,0,0,0-30.32-10.42,2,2,0,0,0,.4,4,40.15,40.15,0,0,1,27.4,9.55c11.54,9.83,18.11,26.28,19.54,48.89a2,2,0,0,0,2,1.87h.13a2,2,0,0,0,1.87-2.12C3291.55,2763.57,3284.48,2746.16,3272,2735.6Z"/><rect width="4" height="207.54" x="3105.94" y="1277.16" transform="rotate(-.96 3108.805 1381.512)"/><path fill="#fff" d="M3079.15,1393.87c0,39.42,30.53,48.69,30.53,48.69l-30.53-165.39Z"/><path d="M3081.15,1393.87v-116.7h-4v116.7c0,40.43,31.63,50.51,31.95,50.61l1.16-3.83C3109.07,1440.28,3081.15,1431.26,3081.15,1393.87Z"/><path fill="#fff" d="M3222.87,1265.58c1.21,23.58,11.57,107.29,96.08,143.07-18.52-58.1-36.6-109-50.45-143.07Z"/><path d="M3270.35,1264.83l-.51-1.25h-49.08l.11,2.1c1.27,24.85,12.06,108.72,97.3,144.81l4,1.7-1.32-4.15C3303,1352.13,3284.62,1299.92,3270.35,1264.83Zm-45.36,2.75h42.16c13.8,34.1,31.39,83.89,48.55,137.46C3238.48,1369.94,3226.7,1293.7,3225,1267.58Z"/><path fill="#676096" d="M3399.21,1416.49c-45.2-45.2-372.25,39.89-372.25,39.89l-82.43,539.77,39.88,619.54h140.93V2012.1l58.5-372.26,26.59-2.65,47.86,436.07,61.15,550.4,127.63-2.66-34.56-558.38S3444.41,1461.69,3399.21,1416.49Z"/><g clip-path="url(#a)"><polygon fill="#23224c" points="2985.52 1434.66 2956.12 1678.65 3116.82 1634.55 3106.04 1481.69 3223.63 1469.93 3282.42 1646.31 3499.95 1616.91 3461.74 1364.11 2985.52 1434.66"/><polygon fill="#3c386b" points="3126.62 1624.75 3161.89 1650.23 3118.78 1993.19 3075.66 1979.47 3107.02 2023.56 3038.43 2034.34 3114.86 2048.06 3121.72 2166.63 3104.08 2636.96 3168.75 2657.54 3156.99 2046.1 3210.43 1637.19 3126.62 1624.75"/><polygon fill="#3c386b" points="3436.26 1575.76 3406.86 2034.34 3362.77 2060.8 3400.98 2063.74 3421.56 2137.23 3436.26 2660.48 3527.39 2678.12 3506.81 1896.18 3436.26 1575.76"/></g><path fill="#fff" d="M3408.72,1041.77c11.82-109.14,7.58-154.21,2-201.6-36.52-25.3-152.82-36.78-152.82-36.78s-13.44-7.59-23.6,6.68-32.34,52.41-104.41,51.16c-34.3-.6-36.07-40.8-31.93-55.54,0,0-55.86,17.26-105.56,31.15S2925.92,898,2925.92,898s18.19,177.82,37.25,260.55,57.51,209.08,46.74,223.48-13,24.4-3.75,35.47-4.6,17.44,3.32,31.39-9.07,32.25,11.3,38.39,345.33.21,411.84-70.68c21.27-22.67-20.68-40.76-23.76-67.87S3396.9,1150.91,3408.72,1041.77Z"/><path fill="#676096" d="M3433.78,844.81s-109.41-52-175.89-41.42c0,0-44.81,240.85-28.85,365.82s55.84,460,55.84,460l218-53.18-90.4-273.87Z"/><g clip-path="url(#b)"><path fill="#3c386b" d="M3162.87,1167.15s8.82,296.9,61.74,58.79,145.51-430.65,145.51-430.65L3204,754.13Z"/><path fill="#3c386b" d="M3455.37,1311.19l18.17,27.15C3489.67,1320.22,3455.37,1311.19,3455.37,1311.19Z"/><path fill="#3c386b" d="M3473.54,1338.34c-13.23,14.87-60.37,35.85-188.18,63-283.68,60.26,43.11,305.72,43.11,305.72l278.29-88.68-35.28-133.75Z"/></g><path fill="#676096" d="M3044.92,822.87s-77.11,2.66-121.66,43.21c-43.24,39.36-109,430.76-109,430.76L2605,1363.35l16.73,90.37s255.73,4.64,282.32-22,45.85-214.7,45.85-214.7l25.94,419.44,135.61-10.63s-52.54-395.52-55.2-504.53S3044.92,822.87,3044.92,822.87Z"/><g clip-path="url(#c)"><path fill="#3c386b" d="M2976.21,817.34s20.57,276.32,111.7,411.54-16.17-449.76-16.17-449.76Z"/><polygon fill="#3c386b" points="2824.82 1292.09 2838.05 1140.69 2583.77 1377.34 2799.83 1317.07 2877.73 1374.4 2835.11 1305.32 2889.49 1305.32 2824.82 1292.09"/><polygon fill="#3c386b" points="2942.4 1090.72 2946.81 1231.82 2939.46 1368.52 2917.41 1649.25 2977.68 1675.71 2967.39 1352.35 2942.4 1090.72"/></g><polygon fill="#cc2e45" points="3035.07 1209.81 3033.57 1234.79 3032.4 1254.73 3026.17 1358.52 3023.42 1404.27 3306.68 1422.9 3311.49 1370.76 3320.39 1274.27 3341.31 1047.13 3045.51 1035.79 3035.07 1209.81"/><path fill="#b22424" d="M3062.94,1215.67c-6.2-1.39-17.54-3.72-27.87-5.86l-1.5,25c0,5.36-7.4,123.73-7.4,123.73l285.32,12.24,8.9-96.49c-73.89-9-197.2-24.79-197.2-24.79S3076.16,1218.6,3062.94,1215.67Z"/><path fill="#e0e0e0" d="M3211.77,1020.16a21.62,21.62,0,0,0-19.34-21c-2.71-.27-5.5-.59-8.17-.93a21.84,21.84,0,0,0-22.41,12.32l-6.74,14.18-48.22,1.41-.36,32.16,161.44,8.72,5.46-34-61.66-6.76S3211.88,1023.76,3211.77,1020.16Z"/><path fill="#f7bac3" d="M3023.24,1222.52l-.32,1.92a15.27,15.27,0,0,0,6.7,15.3l7.34,4.82,1.16,13.08-41.2,3.68a13.67,13.67,0,0,0-12.44,14.3l.89,18.06,10.78,11.57-2.66,1.22a10,10,0,0,0-5.68,11l3,15.88,20.71,15.32-4.18,1.92a7.83,7.83,0,0,0-3.85,10.39,10.19,10.19,0,0,0,11.87,5.6l59.5-15.77,30.65-60.27-35.09-48.91Z"/><g clip-path="url(#d)"><path fill="#ef8998" d="M3052.66,1249.83c-7.33-5.13-18.63-9.88-27-13.11s-14.62-6.27-15.37-15.18l-5.57,1.66c-2.71,1.75-4.07,5.07-4.25,8.29A30.66,30.66,0,0,0,3002,1241c1.63,6.16,4,13.18,10,15.4a20.13,20.13,0,0,0,6.79.86l30.09.37c2.73,0,6.29-.62,6.65-3.32C3055.77,1252.46,3054.19,1250.9,3052.66,1249.83Z"/><path fill="#ef8998" d="M3010.74,1353c.11-6.06,7.41-11.22,5.25-16.89-1.12-2.93-4.33-4.36-7.12-5.81-4.51-2.35-8.71-5.6-11.26-10s-3.24-10.08-.9-14.6c1.63-3.16,4.66-5.76,5-9.3.42-4.4-3.51-7.94-7.32-10.18-6.46-3.78-13.83-6.25-19.24-11.42s-8-14.56-2.87-20l-24.72,15.51c-5.31,4.37-5.78,12.59-3.39,19s7,11.78,10.73,17.56c9.88,15.36,13.37,33.92,15.19,52.08.67,6.61,1.48,14,6.48,18.32,4.85,4.24,12,4.21,18.44,3.49a134.17,134.17,0,0,0,47-14.4c-5.17-3.36-11.88-2.48-18-3S3010.64,1359.2,3010.74,1353Z"/></g><path fill="#676096" d="M3452.39,855.45c-41.12-30.76-76.39-32.23-76.39-32.23-29.25,55.83-8.7,207.72-8.7,207.72l-55.83,242-215.38-8-23.93,98.38s276.53,106.36,348.32,82.43,90.41-252.6,103.7-372.26S3519.72,905.82,3452.39,855.45Z"/><g clip-path="url(#e)"><polygon fill="#3c386b" points="3320.14 1272.98 3358.36 1037.81 3083.5 1262.69 3290.75 1286.21 3355.42 1368.52 3320.14 1290.62 3361.3 1296.5 3320.14 1272.98"/></g><path fill="#002e5a" d="M3212.74,559.9a216.35,216.35,0,0,0-43.24-27.16l-2.17,15.32c.61-13.19-9.27-25.23-21.38-30.5s-25.93-4.92-39-2.82-25.81,5.85-39,7.08a103.48,103.48,0,0,1-51.27-8.37,73.08,73.08,0,0,0,22.34,22.39,31.62,31.62,0,0,1-29.14,3.65c-6.09-2.35-12.48-6.7-18.55-4.32a14.93,14.93,0,0,0-6.09,5.15c-10.85,14.29-9.62,34.59-3.56,51.48,6.83,19.05,19.29,36.19,35.82,47.86s37.15,17.69,57.31,15.89a90.14,90.14,0,0,1,11.48-.8c7.89.31,15.32,3.85,21.9,8.22,6.08,4,11.74,9,15.46,15.24,3.25,5.5,5,12,9.55,16.5,3.83,3.78,9.12,5.59,14.22,7.29l23.65,7.88c1.47.49,3.11,1,4.53.35,1.18-.52,11.92,7.22,12.48,6,18.17-37.94,27.18-87.4,34.32-130,.86-5.09,1.57-10.47-.29-15.28C3220.41,566.38,3216.56,563,3212.74,559.9Z"/><g clip-path="url(#f)"><path fill="#001526" d="M3206.23,626.05c-9.72-6-20.69-9.63-31.54-13.21,2.09-10.13,11.29-18.28,11.22-28.63-.06-8.92-7.48-16.51-15.93-19.39-5.83-2-12-2.17-18.22-1.6a13.34,13.34,0,0,1-.16,1.55l-8.1-.41c2.72-.47,5.49-.88,8.26-1.14.25-5.35-3-10.58-7.33-13.86-4.76-3.58-10.66-5.27-16.42-6.79-12.71-3.35-26.86-6.11-38.47,0-5.78,3.06-68.5,49.33-95.45,41.35-5-1.47-9.92-3.57-15.11-3.38-8.55.31-15.59,6.69-21,13.3s-10.33,14.49-10.73,23.13c-.41,8.82,3.92,17.24,9.48,24.09a69.1,69.1,0,0,0,27.85,20.51c12.48,5,26.15,6.2,39.58,6.13,16.57-.08,35-1.46,47.72,9.14,10.91,9.09,14.14,24.25,21.47,36.41,8.5,14.11,22.86,24.22,38.6,29.07s32.77,4.67,48.86,1.18c15.16-3.29,30.74-10.44,38.08-24.09a60.66,60.66,0,0,0,4.87-13.65,245.2,245.2,0,0,0,5.06-24.79c1.48-9.8,2.32-20-.76-29.44C3224.48,640.72,3216,632,3206.23,626.05Z"/><path fill="#001526" d="M3151.6,564.77a13.34,13.34,0,0,0,.16-1.55c-2.77.26-5.54.67-8.26,1.14Z"/></g><path fill="#f7bac3" d="M3186.42,707.62l-18.35-41.32c36.66-8,18.62-43.46,7.39-46.81s-23.5,40.56-23.5,40.56l-9.78-38.28-13.59-2.58c-30.65,35.77-68.4-40.51-68.4-40.51-6.54,12.74-22.29,54.47-29.32,61.85,0,0,12.53,68,20.8,97.66S3085.56,760,3085.56,760l4.3,46.58-20.67,7c-13.74,43.6,39.54,60.65,71,56.75,97.76-12.1,105.71-64.23,105.71-64.23l-39.63-.94Z"/><path fill="#e05336" d="M3085.56,760l1.32,14.3c59-11.48,79.89-53.54,73.73-89.8C3153,733.57,3114.33,756.92,3085.56,760Z"/><path fill="#e05336" d="M3075.5,683.74c-3,.64-7.64,1.24-9.75.81a14.6,14.6,0,0,1,2.75-3l.85-.73-4-25.69a2,2,0,1,0-4,.62l3.69,23.51c-1.59,1.5-3.83,4-3.5,6.32a3.27,3.27,0,0,0,2,2.53,11.08,11.08,0,0,0,4.16.63,45.39,45.39,0,0,0,8.58-1,2,2,0,1,0-.84-3.91Z"/><path fill="#fff" d="M3066.25,706.37s4.56,16.6,20.31,11.47c20.23-6.59,15.38-26.26,15.38-26.26S3068,706.34,3066.25,706.37Z"/><path fill="#440e06" d="M3081,648.8c-2.68.69-4,4.62-2.94,8.79s4.11,7,6.8,6.3,4-4.62,2.93-8.79S3083.7,648.12,3081,648.8Z"/><path fill="#440e06" d="M3048.34,655.85c-2.68.69-4,4.62-2.94,8.79s4.11,7,6.8,6.3,4-4.62,2.94-8.79S3051,655.17,3048.34,655.85Z"/><path fill="#440e06" d="M3093.26,630.48c-.45-.31-11.13-7.35-24.76.83a2,2,0,1,0,2.06,3.43c11.35-6.81,20.07-1.21,20.46-1a2,2,0,0,0,2.24-3.31Z"/><path fill="#440e06" d="M3056.07,639.18c-.45-.3-11.13-7.34-24.76.84a2,2,0,0,0-.68,2.74,2,2,0,0,0,1.71,1,2,2,0,0,0,1-.28c11.35-6.82,20.07-1.21,20.46-1a2,2,0,0,0,2.24-3.32Z"/><path fill="#e5715e" d="M3120.65,664c-9.84,1.32-17.35,5.93-16.77,10.31s9,6.86,18.89,5.54,17.36-5.93,16.77-10.3S3130.5,662.71,3120.65,664Z"/><path fill="#f7bac3" d="M2408.66,1502.35V1354l-68.48-5.71-5.71,259.65s11.42,325.28,85.6,288.19,31.39-162.64,31.39-162.64Z"/><path fill="#495100" d="M2066.2,1166.18c-44.46,149.76-54.41,339-27.16,500.2,3,17.85,15.22,2.83,12.22-14.9-25.53-151-27.66-340.8,22.48-477.71C2080.11,1156.37,2071.13,1149.57,2066.2,1166.18Z"/><polygon fill="#f7bac3" points="1946.83 2548.44 1929.92 2653.13 1921.92 2702.67 1869.71 2796.61 1960.2 2807.05 1999.97 2648.77 2026.42 2543.52 2189.03 1896.22 2063.19 1827.89 1946.83 2548.44"/><polygon fill="#ef8998" points="1932.86 2641.37 2002.91 2637.01 2029.36 2531.76 1949.77 2536.68 1932.86 2641.37"/><polygon fill="#f7bac3" points="2241.01 2530.34 2244.35 2646.06 2247.62 2758.26 2313.43 2715.7 2322.26 2623.08 2332.77 2512.34 2400.01 1806.18 2221.18 1848.29 2241.01 2530.34"/><polygon fill="#ef8998" points="2244.35 2646.06 2322.26 2623.08 2332.77 2512.34 2241.01 2530.34 2244.35 2646.06"/><polygon fill="#fff" points="2065.17 1560.91 2351.26 1598.8 2369.05 1367.94 2148.51 1415.61 2065.17 1560.91"/><path d="M2147.22,1413.84,2062,1562.5l291.14,38.56,18.16-235.64-223.16,48.23Zm219.63-43.38-17.43,226.08-281-37.22,81.41-141.94Z"/><path fill="#fe9a30" d="M2120.67,1469.27s-137.85,125.93-158.72,286c-14.66,112.36-79.92,817-79.92,817l207.23,15.71,127.85-815.26L2212.5,2580l216.93,17s75.37-719.91-68.83-1137.15C2360.6,1459.83,2273.55,1495.56,2120.67,1469.27Z"/><g clip-path="url(#g)"><polygon fill="#e87d1c" points="1819.46 2584.05 2125.19 2616.39 2125.19 2542.9 1854.74 2442.95 1819.46 2584.05"/><path fill="#e87d1c" d="M2271.92,2323.94c-10.26-150.44-24.34-390.9-14.45-454.22,14.7-94.07,52.91-173.44,52.91-173.44L2228.07,1708l-35.27,264.57-2.94,670.23,305.72,29.4L2507.34,2537,2396.83,2494A196.82,196.82,0,0,1,2271.92,2323.94Z"/><path fill="#fff" d="M2246.1,1463.09l-2.46,22.56q-2.37,22.56-4.62,45.14c-1.53,15-2.92,30.11-4.38,45.17l-4.15,45.19-3.94,45.2c-1.23,15.08-2.54,30.15-3.71,45.23s-2.35,30.16-3.46,45.25l-1.57,22.64-.79,11.31-.71,11.33,1.32-11.27,1.23-11.28,2.47-22.56q2.37-22.56,4.62-45.14c1.53-15,2.92-30.11,4.38-45.17l4.14-45.19,3.93-45.2c1.24-15.08,2.55-30.15,3.71-45.23s2.35-30.16,3.47-45.25l1.57-22.64.79-11.32.71-11.32-1.31,11.27Z"/><path fill="#fff" d="M2311.33,1449.47c.1,1.71,9.44,171.57-42.84,215.54-11.19,9.41-24.64,12.36-40,8.75l-.92,3.89a57.45,57.45,0,0,0,13.23,1.61,45.79,45.79,0,0,0,30.23-11.19c22.67-19.07,37-61.76,42.6-126.88a724.56,724.56,0,0,0,1.65-92Z"/><path fill="#fff" d="M2149.86,1456.55a2,2,0,0,0-2.79.46s-1.23,1.73-3.47,4.91a2,2,0,0,0,3.28,2.3c2.22-3.16,3.45-4.88,3.45-4.88A2,2,0,0,0,2149.86,1456.55Z"/><path fill="#fff" d="M1940.71,2293.82a2,2,0,0,0-2.18,1.81l-1.07,11.92a2,2,0,0,0,1.81,2.17h.18a2,2,0,0,0,2-1.82l1.08-11.92A2,2,0,0,0,1940.71,2293.82Z"/><path fill="#fff" d="M1947.26,2222.29a2,2,0,0,0-2.17,1.81L1944,2236a2,2,0,0,0,1.81,2.17h.18a2,2,0,0,0,2-1.81l1.11-11.92A2,2,0,0,0,1947.26,2222.29Z"/><path fill="#fff" d="M1965.79,2031.66a2,2,0,0,0-2.19,1.79l-1.21,11.91a2,2,0,0,0,1.78,2.19h.21a2,2,0,0,0,2-1.8l1.21-11.91A2,2,0,0,0,1965.79,2031.66Z"/><path fill="#fff" d="M1949.49,2198.45a2,2,0,0,0-2.18,1.81l-1.11,11.92a2,2,0,0,0,1.8,2.17h.19a2,2,0,0,0,2-1.81l1.11-11.92A2,2,0,0,0,1949.49,2198.45Z"/><path fill="#fff" d="M1942.87,2270a2,2,0,0,0-2.17,1.81l-1.09,11.93a2,2,0,0,0,1.81,2.17h.19a2,2,0,0,0,2-1.82l1.08-11.93A2,2,0,0,0,1942.87,2270Z"/><path fill="#fff" d="M1945.06,2246.13a2,2,0,0,0-2.18,1.81l-1.09,11.92a2,2,0,0,0,1.81,2.17h.18a2,2,0,0,0,2-1.81l1.09-11.92A2,2,0,0,0,1945.06,2246.13Z"/><path fill="#fff" d="M1951.74,2174.62a2,2,0,0,0-2.18,1.8l-1.13,11.92a2,2,0,0,0,1.8,2.18h.19a2,2,0,0,0,2-1.82l1.13-11.91A2,2,0,0,0,1951.74,2174.62Z"/><path fill="#fff" d="M1961,2079.3a2,2,0,0,0-2.19,1.79l-1.18,11.88a2,2,0,0,0,1.8,2.19h.2a2,2,0,0,0,2-1.81l1.18-11.87A2,2,0,0,0,1961,2079.3Z"/><path fill="#fff" d="M1954,2150.79a2,2,0,0,0-2.18,1.8l-1.14,11.91a2,2,0,0,0,1.8,2.18h.19a2,2,0,0,0,2-1.81l1.14-11.91A2,2,0,0,0,1954,2150.79Z"/><path fill="#fff" d="M1963.37,2055.48a2,2,0,0,0-2.19,1.79l-1.19,11.91a2,2,0,0,0,1.79,2.19h.2a2,2,0,0,0,2-1.8l1.19-11.91A2,2,0,0,0,1963.37,2055.48Z"/><path fill="#fff" d="M1956.31,2126.92a2,2,0,0,0-2.18,1.79l-1.16,12a2,2,0,0,0,1.8,2.18h.2a2,2,0,0,0,2-1.81l1.16-12A2,2,0,0,0,1956.31,2126.92Z"/><path fill="#fff" d="M1958.64,2103.07a2,2,0,0,0-2.19,1.79l-1.16,11.92a2,2,0,0,0,1.79,2.18h.2a2,2,0,0,0,2-1.8l1.16-11.92A2,2,0,0,0,1958.64,2103.07Z"/><path fill="#fff" d="M1918,2556.33a2,2,0,0,0-2.16,1.83l-1,12a2,2,0,0,0,1.83,2.16h.17a2,2,0,0,0,2-1.84l1-12A2,2,0,0,0,1918,2556.33Z"/><path fill="#fff" d="M1922,2508.55a2,2,0,0,0-2.16,1.82l-1,11.94a2,2,0,0,0,1.82,2.16h.17a2,2,0,0,0,2-1.83l1-11.94A2,2,0,0,0,1922,2508.55Z"/><path fill="#fff" d="M1920,2532.43a2,2,0,0,0-2.16,1.83l-1,11.95a2,2,0,0,0,1.83,2.16h.17a2,2,0,0,0,2-1.83l1-11.95A2,2,0,0,0,1920,2532.43Z"/><path fill="#fff" d="M1916,2580.26a2,2,0,0,0-2.15,1.83l-1,12a2,2,0,0,0,1.83,2.16h.16a2,2,0,0,0,2-1.83l1-12A2,2,0,0,0,1916,2580.26Z"/><path fill="#fff" d="M1938.56,2317.66a2,2,0,0,0-2.17,1.81l-1.07,11.93a2,2,0,0,0,1.81,2.17h.18a2,2,0,0,0,2-1.82l1.07-11.93A2,2,0,0,0,1938.56,2317.66Z"/><path fill="#fff" d="M1924,2484.67a2,2,0,0,0-2.16,1.82l-1,11.94a2,2,0,0,0,1.82,2.16h.18a2,2,0,0,0,2-1.83l1-11.94A2,2,0,0,0,1924,2484.67Z"/><path fill="#fff" d="M1968.25,2007.85a2,2,0,0,0-2.19,1.78l-1.24,11.91a2,2,0,0,0,1.79,2.19h.21a2,2,0,0,0,2-1.79L1970,2010A2,2,0,0,0,1968.25,2007.85Z"/><path fill="#fff" d="M1936.43,2341.51a2,2,0,0,0-2.17,1.82l-1.06,11.92a2,2,0,0,0,1.82,2.17h.17a2,2,0,0,0,2-1.83l1.06-11.92A2,2,0,0,0,1936.43,2341.51Z"/><path fill="#fff" d="M1932.22,2389.22a2,2,0,0,0-2.17,1.81l-1,11.93a2,2,0,0,0,1.82,2.17h.17a2,2,0,0,0,2-1.83l1-11.93A2,2,0,0,0,1932.22,2389.22Z"/><path fill="#fff" d="M1926,2460.8a2,2,0,0,0-2.16,1.82l-1,11.94a2,2,0,0,0,1.82,2.16h.17a2,2,0,0,0,2-1.83l1-11.94A2,2,0,0,0,1926,2460.8Z"/><path fill="#fff" d="M1928.07,2436.93a2,2,0,0,0-2.16,1.82l-1,11.94a2,2,0,0,0,1.82,2.16h.17a2,2,0,0,0,2-1.83l1-11.93A2,2,0,0,0,1928.07,2436.93Z"/><path fill="#fff" d="M1930.14,2413.07a2,2,0,0,0-2.17,1.82l-1,11.93a2,2,0,0,0,1.82,2.17h.17a2,2,0,0,0,2-1.83l1-11.93A2,2,0,0,0,1930.14,2413.07Z"/><path fill="#fff" d="M1934.31,2365.36a2,2,0,0,0-2.16,1.82l-1.05,11.93a2,2,0,0,0,1.81,2.16h.18a2,2,0,0,0,2-1.82l1.05-11.93A2,2,0,0,0,1934.31,2365.36Z"/><path fill="#fff" d="M2049.35,1612.5a2,2,0,0,0-2.73.75c-2,3.54-4,7.07-5.85,10.48a2,2,0,0,0,.79,2.71,2,2,0,0,0,1,.25,2,2,0,0,0,1.76-1c1.87-3.4,3.83-6.91,5.82-10.44A2,2,0,0,0,2049.35,1612.5Z"/><path fill="#fff" d="M2037.76,1633.45a2,2,0,0,0-2.71.83c-1.92,3.62-3.8,7.2-5.56,10.64a2,2,0,0,0,.87,2.69,2,2,0,0,0,2.7-.87c1.75-3.42,3.61-7,5.53-10.58A2,2,0,0,0,2037.76,1633.45Z"/><path fill="#fff" d="M2073.8,1571.31a2,2,0,0,0-2.75.66q-3.12,5.08-6.23,10.23a2,2,0,0,0,.68,2.74,1.94,1.94,0,0,0,1,.29,2,2,0,0,0,1.71-1q3.11-5.12,6.22-10.2A2,2,0,0,0,2073.8,1571.31Z"/><path fill="#fff" d="M2061.4,1591.79a2,2,0,0,0-2.74.7q-3.06,5.17-6.07,10.36a2,2,0,0,0,.72,2.73,2,2,0,0,0,2.74-.73q3-5.16,6-10.32A2,2,0,0,0,2061.4,1591.79Z"/><path fill="#fff" d="M2016.77,1676.48a2,2,0,0,0-2.62,1.08c-.89,2.12-1.74,4.22-2.53,6.23-.58,1.47-1.18,3.21-1.78,5.15a2,2,0,0,0,1.32,2.5,2.06,2.06,0,0,0,.59.09,2,2,0,0,0,1.91-1.41c.58-1.85,1.14-3.49,1.68-4.86.78-2,1.62-4.06,2.5-6.16A2,2,0,0,0,2016.77,1676.48Z"/><path fill="#fff" d="M2009.12,1699.21a2,2,0,0,0-2.4,1.48c-.83,3.52-1.69,7.49-2.56,11.81a2,2,0,0,0,1.56,2.35,1.81,1.81,0,0,0,.4,0,2,2,0,0,0,2-1.6c.86-4.28,1.71-8.2,2.53-11.68A2,2,0,0,0,2009.12,1699.21Z"/><path fill="#fff" d="M2026.8,1654.74a2,2,0,0,0-2.68.92c-1.82,3.75-3.55,7.4-5.13,10.88a2,2,0,0,0,1,2.65,2,2,0,0,0,.83.18,2,2,0,0,0,1.82-1.17c1.57-3.45,3.28-7.07,5.09-10.78A2,2,0,0,0,2026.8,1654.74Z"/><path fill="#fff" d="M2139.54,1471.23a2,2,0,0,0-2.79.5c-2,2.92-4.31,6.23-6.8,9.87a2,2,0,1,0,3.29,2.27c2.5-3.64,4.78-6.94,6.8-9.86A2,2,0,0,0,2139.54,1471.23Z"/><path fill="#fff" d="M2126,1491a2,2,0,0,0-2.78.54c-2.13,3.15-4.38,6.46-6.7,9.93a2,2,0,1,0,3.32,2.23c2.32-3.46,4.56-6.77,6.69-9.92A2,2,0,0,0,2126,1491Z"/><path fill="#fff" d="M2099.44,1530.86a2,2,0,0,0-2.77.59q-3.21,4.93-6.49,10.07a2,2,0,0,0,.6,2.76,1.94,1.94,0,0,0,1.08.32,2,2,0,0,0,1.68-.92q3.28-5.12,6.49-10A2,2,0,0,0,2099.44,1530.86Z"/><path fill="#fff" d="M2086.5,1551a2,2,0,0,0-2.76.62q-3.18,5-6.38,10.15a2,2,0,0,0,.64,2.75,1.93,1.93,0,0,0,1.05.3,2,2,0,0,0,1.7-.94q3.2-5.12,6.37-10.12A2,2,0,0,0,2086.5,1551Z"/><path fill="#fff" d="M2112.6,1510.85a2,2,0,0,0-2.77.56q-3.23,4.86-6.6,10a2,2,0,0,0,.57,2.77,2,2,0,0,0,1.1.33,2,2,0,0,0,1.67-.9l6.59-10A2,2,0,0,0,2112.6,1510.85Z"/><path fill="#fff" d="M2004.22,1722.71a2,2,0,0,0-2.33,1.61c-.68,3.7-1.37,7.68-2.08,11.84a2,2,0,0,0,1.64,2.3,1.87,1.87,0,0,0,.34,0,2,2,0,0,0,2-1.67c.7-4.14,1.39-8.1,2.07-11.78A2,2,0,0,0,2004.22,1722.71Z"/><path fill="#fff" d="M1978.56,1912.63a2,2,0,0,0-2.22,1.76q-.66,5.91-1.33,11.9a2,2,0,0,0,1.77,2.21h.22a2,2,0,0,0,2-1.77q.68-6,1.34-11.9A2,2,0,0,0,1978.56,1912.63Z"/><path fill="#fff" d="M1981.28,1888.84a2,2,0,0,0-2.22,1.75q-.68,5.9-1.37,11.9a2,2,0,0,0,1.76,2.22h.23a2,2,0,0,0,2-1.77q.69-6,1.37-11.9A2,2,0,0,0,1981.28,1888.84Z"/><path fill="#fff" d="M1975.9,1936.42a2,2,0,0,0-2.21,1.77c-.43,4-.87,7.91-1.3,11.91a2,2,0,0,0,1.77,2.2h.22a2,2,0,0,0,2-1.78q.66-6,1.31-11.9A2,2,0,0,0,1975.9,1936.42Z"/><path fill="#fff" d="M1984.09,1865.05a2,2,0,0,0-2.23,1.75q-.7,5.9-1.41,11.9a2,2,0,0,0,1.76,2.22h.23a2,2,0,0,0,2-1.77q.71-6,1.41-11.88A2,2,0,0,0,1984.09,1865.05Z"/><path fill="#fff" d="M1973.3,1960.23a2,2,0,0,0-2.2,1.77q-.64,5.93-1.28,11.91a2,2,0,0,0,1.77,2.2h.22a2,2,0,0,0,2-1.79q.63-6,1.27-11.9A2,2,0,0,0,1973.3,1960.23Z"/><path fill="#fff" d="M1970.75,1984a2,2,0,0,0-2.2,1.78q-.63,5.93-1.25,11.91a2,2,0,0,0,1.78,2.2h.21a2,2,0,0,0,2-1.79q.62-6,1.25-11.91A2,2,0,0,0,1970.75,1984Z"/><path fill="#fff" d="M1987,1841.28a2,2,0,0,0-2.23,1.74q-.73,5.87-1.46,11.89a2,2,0,0,0,1.74,2.23h.25a2,2,0,0,0,2-1.76q.74-6,1.46-11.88A2,2,0,0,0,1987,1841.28Z"/><path fill="#fff" d="M2000.16,1746.35a2,2,0,0,0-2.29,1.66q-.91,5.73-1.85,11.86a2,2,0,0,0,1.68,2.28l.3,0a2,2,0,0,0,2-1.7q.91-6.1,1.84-11.83A2,2,0,0,0,2000.16,1746.35Z"/><path fill="#fff" d="M1996.53,1770a2,2,0,0,0-2.27,1.69c-.56,3.87-1.13,7.82-1.7,11.88a2,2,0,0,0,1.7,2.25,1.37,1.37,0,0,0,.28,0,2,2,0,0,0,2-1.72q.86-6.06,1.7-11.85A2,2,0,0,0,1996.53,1770Z"/><path fill="#fff" d="M1990,1817.52a2,2,0,0,0-2.24,1.72q-.75,5.87-1.52,11.89a2,2,0,0,0,1.74,2.24h.25a2,2,0,0,0,2-1.75q.76-6,1.52-11.87A2,2,0,0,0,1990,1817.52Z"/><path fill="#fff" d="M1993.17,1793.77a2,2,0,0,0-2.25,1.71q-.8,5.83-1.6,11.88a2,2,0,0,0,1.72,2.25h.27a2,2,0,0,0,2-1.73q.8-6,1.59-11.87A2,2,0,0,0,1993.17,1793.77Z"/><path fill="#fff" d="M1914.18,2602.54a2,2,0,0,0-2.16,1.83l-.48,6a2,2,0,0,0,1.83,2.15h.16a2,2,0,0,0,2-1.84l.48-6A2,2,0,0,0,1914.18,2602.54Z"/></g><polygon fill="#fff0cc" points="1861.03 2590.44 2097.66 2618.28 2106.78 2558.32 1871.18 2501.08 1861.03 2590.44"/><polygon fill="#fff0cc" points="2197.59 2609.94 2435.14 2608.32 2443.48 2506.1 2193.89 2557.91 2197.59 2609.94"/><path fill="#fff" d="M2315.6,2709.19l-73.08,18.27-7.83,54.81,247.94,9.13S2467.87,2765.3,2315.6,2709.19Z"/><polygon fill="#687a00" points="2232.08 2800.54 2480.02 2803.15 2482.63 2791.4 2234.69 2782.27 2232.08 2800.54"/><path fill="#687a00" d="M2334.65,2714.18c-8.05,7.85-13.43,17.83-19.81,27a2.5,2.5,0,0,0,4.32,2.52c6.14-8.8,11.28-18.41,19-26C2340.49,2715.46,2337,2711.93,2334.65,2714.18Z"/><path fill="#687a00" d="M2350.21,2718.79c-8.05,7.86-13.43,17.83-19.81,27a2.5,2.5,0,0,0,4.32,2.53c6.14-8.81,11.28-18.41,19-26C2356.05,2720.08,2352.51,2716.54,2350.21,2718.79Z"/><path fill="#687a00" d="M2367.27,2724.62c-8.05,7.85-13.43,17.83-19.8,27a2.52,2.52,0,0,0,.9,3.42,2.55,2.55,0,0,0,3.42-.9c6.13-8.8,11.27-18.41,19-26C2373.11,2725.9,2369.58,2722.37,2367.27,2724.62Z"/><path fill="#fff" d="M1922.81,2688.31s-110.92,146.16-47,168.34,96.57-73.08,96.57-73.08l18.27-97.87C1955.43,2715.72,1922.81,2688.31,1922.81,2688.31Z"/><path fill="#687a00" d="M1875.83,2841c-10.44-2.61-16.29-11.61-19.75-16.64-.47,15.2,4.86,27.13,19.75,32.3,63.94,22.18,96.57-73.08,96.57-73.08l3-16.31C1967.31,2785.93,1937.24,2856.34,1875.83,2841Z"/><path fill="#687a00" d="M1954.64,2711.35c-9.45-6.1-20.39-9.11-30.73-13.28a2.52,2.52,0,0,0-3.08,1.74,2.57,2.57,0,0,0,1.75,3.08c10,4,20.44,6.91,29.53,12.78C1954.83,2717.42,1957.33,2713.09,1954.64,2711.35Z"/><path fill="#687a00" d="M1947.74,2728.25c-9.68-5.75-20.7-8.37-31.19-12.16a2.5,2.5,0,1,0-1.33,4.82c10.09,3.65,20.69,6.13,30,11.65C1948,2734.21,1950.51,2729.89,1947.74,2728.25Z"/><path fill="#687a00" d="M1938,2744.44c-9-6.38-19.57-9.79-29.53-14.33a2.58,2.58,0,0,0-3.42.89,2.51,2.51,0,0,0,.9,3.42c10,4.54,20.53,8,29.53,14.34a2.52,2.52,0,0,0,3.42-.9A2.55,2.55,0,0,0,1938,2744.44Z"/><path fill="#3b3654" d="M2335.12,1153c-28.7-10.7-69.6-19-69.6-19-10.44,77.6-143.54,20.21-143.54,20.21l-60.89,17.56c-117.52-.38-61.88,180.81-61.88,180.81l76.53-5.07,34.93,83.82c88.74,45.49,321-32.11,321-32.11s-2.61-61.55-13.05-101.69S2363.83,1163.71,2335.12,1153Z"/><g clip-path="url(#h)"><path fill="#141226" d="M2333.9,1271.51s83.78,73.49,23.52,155.8,101.41-30.87,101.41-30.87l-72,4.41S2407.39,1331.77,2333.9,1271.51Z"/><path fill="#141226" d="M2157.52,1346.47c-29.39-67.61-35.27,1.47-155.8-4.41S2107.55,1445,2107.55,1445l142.57,75,54.38-70.55S2186.92,1414.08,2157.52,1346.47Z"/></g><path d="M2228.64,1063.75c-.2.09-20.41,8.32-28.06-4.4a3,3,0,1,0-5.14,3.09c3.95,6.58,10.67,10,19.52,10q1.24,0,2.55-.09a47.16,47.16,0,0,0,13.44-3.07,3,3,0,0,0-2.31-5.54Z"/><circle cx="2068.02" cy="914.39" r="56.08" fill="#5177d6" transform="rotate(-83.55 2067.907 914.425)"/><g clip-path="url(#i)"><path fill="#3c5fc6" d="M2103.76,864.28c-16.47-10.79-35.49-17-54.56-22l8.68,14.09c16.46,3.9,32.79,12.85,40.41,28s3,36.75-12.41,43.64a33.13,33.13,0,0,1-13.72,2.57,47.51,47.51,0,0,1-22-5.59c-3.64-2-7.21-4.62-8.58-8.52-2.32-6.58,2.94-13.87,9.46-16.34s13.79-1.44,20.68-.37c-13.07-13.29-37.33-12.09-50,1.58s-12.67,36.76-1,51.33c9.75,12.21,25.44,18.07,40.77,21.12,13.82,2.76,28.29,3.66,41.93.1a53.15,53.15,0,0,0,20.51-10.11c15.17-12.55,20.29-34.76,15.27-53.8S2120.22,875.08,2103.76,864.28Z"/></g><path fill="#5177d6" d="M2247.66,915.43c-28-23.34-75-34.87-103.22-25.2,0,0-41.29-3.15-65,36.29-3.77,6.27-70.38,102.47,81,170.08l120-100C2294,936.43,2259.57,924.19,2247.66,915.43Z"/><path fill="#3c5fc6" d="M2297.24,965.05c2.17-2,2.25-5.52,1-8.16s-3.66-4.56-6-6.34c-8.78-6.68-18.4-12.55-29-15.43s-22.49-2.51-32.2,2.74c-6.76,3.65-13.15,9.76-20.79,8.91-3.21-.35-6.12-1.93-9-3.35-7.65-3.75-16-6.6-24.52-6.15s-17.18,4.7-21.14,12.25c-3.1,5.93-3,13-5,19.36-4.32,13.41-19.25,22.48-33.15,20.12a54.57,54.57,0,0,0,40.47-1.4c-6.26,4.24-10.1,11.12-14.37,17.36-8.87,13-20.85,24.27-35.58,29.73s-32.38,4.29-44.8-5.32c18.36,29.36,42.36,56.54,73.88,70.89s71.53,13.48,98.09-8.74c13.74-11.49,22.82-27.43,33.69-41.66a211.56,211.56,0,0,1,49.31-46.17l-3-4.23Z"/><path fill="#3c5fc6" d="M2114.15,890.51c-8-.94-15.88,2.25-23.16,5.73-12.71,6.07-25.17,13.48-34.09,24.37S2043,946.47,2047,960s18.28,24.12,32.05,21.14c-2.06-14.38-3.73-30.47,5-42.11a12.62,12.62,0,0,1,5.4-4.51c3-1.1,6.25-.39,9.36.19a93,93,0,0,0,32,.26,73.21,73.21,0,0,0-20.93-24.76A235.31,235.31,0,0,1,2159,895.89Z"/><path fill="none" d="M2247.66,915.43c-28-23.34-75-34.87-103.22-25.2,0,0-41.29-3.15-65,36.29-3.77,6.27-70.38,102.47,81,170.08l120-100C2294,936.43,2259.57,924.19,2247.66,915.43Z"/><path fill="#f7bac3" d="M2284,1005c-3.41-19.44-9.41-34.13-16.74-45.2a133.79,133.79,0,0,1-16.88-18.28,72.48,72.48,0,0,0-6-4.14c-1.73,17-14.44,34.63-42.88,24.33-15.31-5.54-22.29,35-35.52,44.67-12.5,9.2-21.36,12.44-28,12-.09,1.06-.21,2.09-.3,3.21a3.45,3.45,0,0,1-3.82,3.13c-8.1-1-24.29-4.17-29,16.81-2.35,10.6,4.45,21.5,13.35,24.43,7,2.28,17.27,3.68,21.93,1.62,2.81,3.86,17.53,21.76,17.53,21.76l-7.15,48.69a15.62,15.62,0,0,1-6.86,10.78l-20.32,13.43c19.68,26.86,49.05,88.12,119,71.84S2268.18,1134,2268.18,1134h-2.66a18.69,18.69,0,0,1-18.66-19l.21-15c10.72-3.1,33.17-11.12,38.71-46.44,1.75-11,1.8-24.81-.7-42C2284.76,1009.42,2284.42,1007.27,2284,1005Z"/><g clip-path="url(#j)"><path fill="#e85336" d="M2178.1,1088.52c34.54,24.25,92.6,22,92.6,22l29.39-11.75-53,1.21S2216,1109.43,2178.1,1088.52Z"/><path fill="#ef8998" d="M2165.56,936.44c-23.52,12.2-44.74,33-48.34,59.23-.63,4.6-.67,9.46,1.32,13.66,3.81,8.06,13.84,11.18,22.77,11A51.85,51.85,0,0,0,2186,992.13c2.47-5,4.2-10.51,8-14.56,8.47-9,23.34-7.28,34.06-13.4,10.24-5.85,15.33-19.38,11.48-30.52l15.9-7.37C2225.92,917.05,2193,922.2,2165.56,936.44Z"/></g><path fill="#fff" d="M2226.85,1083.82c24,6.13,25-32.22,25-32.22l-43-1.58S2207.83,1079,2226.85,1083.82Z"/><path fill="#e05336" d="M2182.13,1020a21.43,21.43,0,1,0,14.54,26.59A21.43,21.43,0,0,0,2182.13,1020Z"/><path fill="#e05336" d="M2260.79,1026.61a21.36,21.36,0,0,0,25,27c1.75-11,1.8-24.81-.7-42A21.44,21.44,0,0,0,2260.79,1026.61Z"/><path fill="#54160a" d="M2210.81,1003.56c-2.6.52-3.82,5.37-2.73,10.85s4.07,9.49,6.67,9,3.81-5.37,2.73-10.84S2213.4,1003,2210.81,1003.56Z"/><path fill="#54160a" d="M2240.78,996.22c-2.6.51-3.82,5.37-2.73,10.85s4.07,9.49,6.67,9,3.82-5.37,2.73-10.84S2243.37,995.7,2240.78,996.22Z"/><path fill="#54160a" d="M2184.2,995.14l3.83,6.24c13.48-13.19,27.19-12,27.19-12l-1-4.8C2198.44,981.67,2184.2,995.14,2184.2,995.14Z"/><path fill="#54160a" d="M2229.71,979l.3,4.9s8.66-3.06,20.81.73a25.79,25.79,0,0,0-.78-7.31C2244.05,976,2236.58,975.64,2229.71,979Z"/><polygon fill="#f4684d" points="2221.01 1035.67 2236.35 1037.95 2230.48 1006.01 2221.01 1035.67"/><path fill="#495100" d="M2073.74,1173.77c66.32,129.85,124.94,308.9,118,463.58-.81,18,15,30.52,14.74,12.42-2.63-163.45-47-347.71-118-486.84C2080.56,1147.5,2065.85,1158.31,2073.74,1173.77Z"/><path fill="#687a00" d="M2242.57,1635.36c-1.76-25.6-15.37-46.46-32.16-51.85a27.23,27.23,0,0,0-10.44-1.34l-181.56,12.51c-21.31,1.47-37,27.8-34.9,58.52l5.61,81.37c2.11,30.72,21.28,54.65,42.6,53.18l181.55-12.5a27.12,27.12,0,0,0,10.16-2.76c15.89-7.64,26.51-30.17,24.74-55.77Z"/><path fill="#495100" d="M2242.57,1635.36c-1.76-25.6-15.37-46.46-32.16-51.85-15.89,7.69-26.47,30.21-24.71,55.76l5.6,81.37c1.76,25.55,15.34,46.41,32.13,51.85,15.89-7.64,26.51-30.17,24.74-55.77Z"/><rect width="201.4" height="3" x="1987.08" y="1681.73" fill="#495100" transform="rotate(-3.94 2087.448 1683.024)"/><path fill="#fff1d2" d="M2120.58,1668.16l-87.58,6a4.88,4.88,0,0,0-4.52,5.2l2.21,32.16a4.88,4.88,0,0,0,5.2,4.53l87.57-6a4.88,4.88,0,0,0,4.53-5.2l-2.21-32.16A4.89,4.89,0,0,0,2120.58,1668.16Z"/><path fill="#f7bac3" d="M2566.81,1437.63c-8.81,3.74-48-55.87-36.07-63.71s28.31-20.88,12.47-19-28.23-3.42-46.38,12.61-37.72,32-62.1,33.31-210.11,25.9-210.11,25.9l-87-88.46c-4.27-.26-128.4,14.27-128.4,14.27s44.16,86.49,124.12,151.23c67.36,54.53,245.48-9.71,318.28-29.46a28,28,0,0,1,26.17,5.9c3,2.73,7.91,5.73,15.83,8.61,23.76,8.62,22.07-10.07,51.07-16.84s34.71-6.42,39.6-16.12S2575.62,1433.89,2566.81,1437.63Z"/><g clip-path="url(#k)"><path fill="#e85336" d="M2584.66,1330.54l-33.07,5.6c4,4,3,11-.41,15.57s-8.54,7.35-13.15,10.65-9.05,7.69-9.79,13.31c-.46,3.47.58,7,1.85,10.21a67.17,67.17,0,0,0,24.62,30.8c4.34,2.94,9.2,5.42,14.44,5.77a23.66,23.66,0,0,0,13.58-3.62c13.81-8.31,18.84-26.46,17-42.48S2590.46,1345.58,2584.66,1330.54Z"/><path fill="#ef8998" d="M2582.59,1461.19a53.09,53.09,0,0,1-21.67,3c-8.34-.58-16.88-3.11-24.87-.66-10.24,3.13-16.74,13.6-26.73,17.45-4.63,1.78-9.71,2-14.45,3.48s-9.5,4.72-10.39,9.6c-.84,4.62,2.19,9.27,6.21,11.7s8.86,3,13.54,3.42a161.43,161.43,0,0,0,116.32-37.78l-27.91-22.14C2593.75,1454.87,2587.92,1459.26,2582.59,1461.19Z"/><path fill="#ef8998" d="M1961,1336.83c-2.39,7-.15,14.64,2.09,21.69l13.17,41.51q91.26-34.35,184.11-64.25l57.43-45.74a1076.74,1076.74,0,0,0-228.94,28.86C1977.59,1321.57,1964.7,1325.9,1961,1336.83Z"/></g><path fill="#f4abba" d="M2535.93,1379.8s-49.63,44.31-35.45,47.86,46.09-19.5,46.09-19.5,15.95,17.72,40.77,15.95l-3.55-49.63Z"/><path fill="#e05336" d="M2545.5,1409.12l.93.91,1-.71Z"/><path fill="#e05336" d="M2536.1,1381.27l.51-.06.31-.31Z"/><path fill="#e05336" d="M2570.77,1421.72c-1.75-.64-3.52-1.19-5.19-2a56.08,56.08,0,0,1-9.66-5.41l-2.22-1.63c-.72-.59-1.44-1.15-2.14-1.75a46.68,46.68,0,0,1-3.92-3.74l-.85-.93-1.06.72c-3.9,2.66-8,5.17-12.06,7.53a138.72,138.72,0,0,1-12.55,6.56,62.78,62.78,0,0,1-13.09,4.54,17.71,17.71,0,0,1-6.41.25c-1.13-.16-1.49-.48-1.59-.67a3.33,3.33,0,0,1,.14-2,24.73,24.73,0,0,1,3-5.82c1.27-1.92,2.68-3.79,4.15-5.62,2.94-3.68,6.14-7.18,9.36-10.67s6.57-6.88,10-10.23,6.59-6.49,10-9.63l-.51.06.82-.37-.31.31q5.71-.74,11.42-1.52l11.93-1.64,11.93-1.73q6-.88,11.9-1.84c-4,.25-8,.51-12,.82l-12,.93-12,1q-6,.51-12,1.08l-.45,0-.38.33q-10.89,9.46-21,19.8-5,5.16-9.67,10.79c-1.54,1.89-3,3.83-4.41,5.89a27.07,27.07,0,0,0-3.56,6.88,9.52,9.52,0,0,0-.38,2.25,5.41,5.41,0,0,0,.55,2.73,4.82,4.82,0,0,0,2.17,2.06,6.41,6.41,0,0,0,1.21.45c.37.09.69.14,1,.21a21.37,21.37,0,0,0,7.85-.32,60.38,60.38,0,0,0,13.9-5,159.44,159.44,0,0,0,23.75-14.4l-.93-.91,1.91.2-1,.71a43.66,43.66,0,0,0,3.46,3c.76.6,1.55,1.15,2.33,1.72l2.4,1.58a54.07,54.07,0,0,0,10.3,5.06c1.78.71,3.64,1.17,5.47,1.7a49,49,0,0,0,5.62,1,48.26,48.26,0,0,0,11.33.06,54.07,54.07,0,0,1-11.17-1C2574.33,1422.8,2572.56,1422.18,2570.77,1421.72Z"/></g></svg>